# Blender v2.93.5 OBJ File: 'alien.blend'
# www.blender.org
mtllib bicycle.mtl
o bicycle_Cube
v 0.329883 -0.153703 -0.461790
v 0.461778 -0.153703 -0.329894
v 0.423147 -0.153703 -0.423158
v 0.461778 -0.000000 -0.329894
v 0.329883 -0.000000 -0.461790
v 0.423147 -0.000000 -0.423158
v 0.461778 -0.153703 0.329871
v 0.329883 -0.153703 0.461766
v 0.423147 -0.153703 0.423135
v 0.329883 -0.000000 0.461766
v 0.461778 -0.000000 0.329871
v 0.423147 -0.000000 0.423135
v -0.461778 -0.153703 -0.329894
v -0.329883 -0.153703 -0.461790
v -0.423147 -0.153703 -0.423158
v -0.329883 -0.000000 -0.461790
v -0.461778 -0.000000 -0.329894
v -0.423147 -0.000000 -0.423158
v -0.329883 -0.153703 0.461766
v -0.461778 -0.153703 0.329871
v -0.423147 -0.153703 0.423135
v -0.461778 -0.000000 0.329871
v -0.329883 -0.000000 0.461766
v -0.423147 -0.000000 0.423135
v 0.359999 -0.000000 -0.343947
v -0.359999 -0.000000 -0.343947
v 0.359999 -0.000000 0.343924
v -0.359999 -0.000000 0.343924
v -0.359999 -0.153703 -0.343947
v 0.359999 -0.153703 -0.343947
v -0.359999 -0.153703 0.343924
v 0.359999 -0.153703 0.343924
v 0.000000 -0.153703 -0.461790
v 0.000000 -0.000000 -0.461790
v 0.000000 -0.000000 -0.343947
v 0.000000 -0.153703 -0.343947
v 0.149863 -0.153703 0.461766
v -0.149863 -0.153703 0.461766
v 0.000000 -0.153703 0.343947
v 0.000000 -0.153703 0.461766
v -0.149863 -0.000000 0.461766
v 0.149863 -0.000000 0.461766
v 0.000000 -0.000000 0.343947
v 0.000000 -0.000000 0.461766
v 0.111681 -0.113843 0.541851
v 0.000000 -0.061455 0.593983
v -0.111101 -0.113238 0.543066
v -0.111101 0.000710 0.543066
v 0.000000 0.001619 0.593983
v 0.111681 0.000699 0.541851
v -0.149863 0.423375 0.461766
v 0.000000 0.423375 0.461766
v 0.149863 0.423375 0.461766
v 0.000000 0.424994 0.593983
v -0.096222 0.424994 0.568830
v 0.096222 0.424994 0.568830
v 0.033806 0.250963 0.564551
v -0.011269 0.250963 0.584640
v -0.011269 0.250086 0.504257
v 0.069879 0.250086 0.504257
v -0.056343 0.250963 0.564551
v -0.092417 0.250086 0.504257
v 0.029275 0.106619 0.584123
v 0.107695 0.105772 0.505280
v -0.032115 0.106619 0.541015
v -0.049145 0.105772 0.505280
v 0.090665 0.106619 0.541015
v 0.029275 0.105772 0.505280
v 0.076874 0.366675 0.568246
v -0.012363 0.365157 0.467569
v -0.012363 0.366675 0.592707
v 0.128115 0.365157 0.467569
v -0.101600 0.366675 0.568246
v -0.152842 0.365157 0.467569
v 0.372159 0.517275 0.558613
v 0.399568 0.574973 0.559191
v 0.475553 0.573371 0.453268
v -0.394417 0.574973 0.559191
v -0.470403 0.573371 0.453268
v 0.444746 0.515773 0.459009
v -0.402036 0.517275 0.558613
v -0.474623 0.515774 0.459009
vt 0.289691 0.020692
vt 0.287063 0.096497
vt 0.152306 0.108235
vt 0.123860 0.044468
vt 0.531205 0.437532
vt 0.469114 0.412231
vt 0.466595 0.167377
vt 0.531205 0.141559
vt 0.143153 0.153413
vt 0.124708 0.415521
vt 0.084935 0.405887
vt 0.103917 0.155849
vt 0.040643 0.119130
vt 0.017798 0.424224
vt 0.280390 0.439227
vt 0.205406 0.491088
vt 0.124764 0.461588
vt 0.121115 0.125310
vt 0.077113 0.073711
vt 0.076614 0.517212
vt 0.039126 0.474106
vt 0.097234 0.439513
vt 0.503774 0.481976
vt 0.457316 0.442844
vt 0.467574 0.513612
vt 0.431388 0.463496
vt 0.420379 0.116978
vt 0.459861 0.054683
vt 0.504007 0.093374
vt 0.450516 0.135485
vt 0.285382 0.148218
vt 0.432180 0.419930
vt 0.352522 0.489967
vt 0.426719 0.162730
vt 0.470237 0.654587
vt 0.420785 0.641942
vt 0.414895 0.599228
vt 0.454031 0.615447
vt 0.132098 0.641880
vt 0.138016 0.599166
vt 0.082631 0.654480
vt 0.098870 0.615356
vt 0.470222 0.793022
vt 0.420767 0.793022
vt 0.131946 0.793022
vt 0.164495 0.566086
vt 0.454031 0.970597
vt 0.414895 0.986816
vt 0.420785 0.944102
vt 0.470237 0.931456
vt 0.138016 0.986876
vt 0.132098 0.944163
vt 0.098871 0.970687
vt 0.082631 0.931563
vt 0.394373 0.555304
vt 0.082563 0.856022
vt 0.082387 0.793022
vt 0.082563 0.730021
vt 0.280489 0.484465
vt 0.238384 0.523379
vt 0.212826 0.569706
vt 0.715675 0.722289
vt 0.715673 0.663324
vt 0.740231 0.668512
vt 0.740233 0.731417
vt 0.322778 0.521645
vt 0.349630 0.563321
vt 0.282500 0.565929
vt 0.281603 0.535000
vt 0.045030 0.840177
vt 0.014618 0.793028
vt 0.741919 0.229435
vt 0.741913 0.183750
vt 0.771353 0.173873
vt 0.767473 0.222876
vt 0.044460 0.746107
vt 0.833220 0.156732
vt 0.826266 0.221984
vt 0.835321 0.288035
vt 0.774001 0.272261
vt 0.745496 0.275730
vt 0.740229 0.605608
vt 0.715671 0.604358
vt 0.778933 0.469263
vt 0.803229 0.471034
vt 0.823760 0.065722
vt 0.856935 0.020181
vt 0.612361 0.185057
vt 0.612807 0.167768
vt 0.677605 0.174773
vt 0.682772 0.207148
vt 0.604400 0.680805
vt 0.604399 0.647888
vt 0.664976 0.629723
vt 0.664977 0.663785
vt 0.614641 0.273488
vt 0.614164 0.255187
vt 0.685805 0.254819
vt 0.681078 0.286961
vt 0.613081 0.219116
vt 0.684831 0.231318
vt 0.604402 0.713721
vt 0.664978 0.697846
vt 0.556394 0.731423
vt 0.556392 0.668518
vt 0.565130 0.228886
vt 0.566275 0.177536
vt 0.559094 0.279305
vt 0.565221 0.318222
vt 0.556390 0.605614
vt 0.568937 0.139737
vt 0.718713 0.132554
vt 0.723837 0.327662
vt 0.821860 0.441231
vt 0.809910 0.384882
vt 0.824978 0.378728
vt 0.856935 0.430329
vt 0.807982 0.069563
vt 0.812966 0.014318
vt 0.803229 0.868154
vt 0.778932 0.855225
vn 0.0000 0.0000 -1.0000
vn 0.1951 0.0000 -0.9808
vn -0.9808 0.0000 0.1951
vn -0.9808 0.0000 -0.1951
vn 0.0000 1.0000 -0.0000
vn 0.9808 0.0000 -0.1951
vn 0.9808 0.0000 0.1951
vn 0.7071 0.0000 -0.7071
vn 0.1951 0.0000 0.9808
vn 0.7071 0.0000 0.7071
vn -0.7071 0.0000 0.7071
vn -0.1951 0.0000 0.9808
vn -0.1951 0.0000 -0.9808
vn -0.7071 0.0000 -0.7071
vn 0.0000 -1.0000 -0.0000
vn 0.0000 0.0000 1.0000
vn 0.9027 0.0000 0.4304
vn 0.9006 0.0732 0.4284
vn 0.7231 0.0572 0.6884
vn 0.7673 0.0000 0.6413
vn 0.0000 -0.0992 -0.9951
vn -0.7138 0.2413 0.6574
vn -0.7656 0.0000 0.6433
vn 0.0036 0.0000 1.0000
vn -0.0341 0.0980 0.9946
vn 0.0004 -0.8546 0.5192
vn -0.0674 -0.8525 0.5184
vn 0.0006 -0.8546 0.5192
vn -0.8801 0.2280 0.4165
vn -0.9027 0.0000 0.4304
vn -0.0346 -0.0246 0.9991
vn 0.1966 -0.0691 0.9780
vn 0.1210 -0.0488 0.9914
vn 0.0340 -0.0391 0.9987
vn 0.0682 -0.8528 0.5177
vn -0.0014 0.9999 -0.0138
vn 0.0014 0.9999 -0.0138
vn -0.1595 0.0106 0.9871
vn -0.1390 0.0078 0.9903
vn -0.0194 -0.0980 -0.9950
vn -0.4209 0.8662 -0.2692
vn 0.7260 0.1480 0.6716
vn 0.8740 0.2061 0.4401
vn 0.8757 -0.0553 0.4797
vn 0.6328 -0.0214 0.7740
vn 0.0000 0.1904 -0.9817
vn 0.0000 0.2109 -0.9775
vn 0.0000 -0.1913 -0.9815
vn 0.0000 -0.1572 -0.9876
vn -0.8659 0.2357 0.4412
vn -0.6865 0.1059 0.7194
vn -0.6376 -0.2156 0.7395
vn -0.8396 -0.2829 0.4636
vn 0.0869 0.0686 0.9939
vn -0.0414 -0.0954 0.9946
vn 0.0000 0.2275 -0.9738
vn 0.0000 -0.1647 -0.9863
vn 0.0000 0.3805 -0.9248
vn 0.8362 -0.3016 0.4581
vn 0.6610 -0.2347 0.7127
vn 0.0000 -0.3038 -0.9527
vn -0.6606 -0.2471 0.7089
vn -0.8320 -0.3158 0.4560
vn -0.0018 -0.1134 0.9935
vn -0.8064 0.1088 0.5813
vn 0.7547 -0.3564 0.5509
vn 0.4262 0.8626 -0.2724
vn 0.0253 -0.1105 -0.9935
vn 0.0466 -0.0288 0.9985
vn -0.4253 -0.8619 0.2760
vn 0.4307 -0.8582 0.2793
vn -0.0352 -0.0061 0.9994
usemtl bicycle
s 1
f 33/1/1 34/2/1 5/3/2 1/4/2
f 20/5/3 22/6/3 17/7/4 13/8/4
f 25/9/5 27/10/5 11/11/5 4/12/5
f 2/13/6 4/12/6 11/11/7 7/14/7
f 43/15/5 42/16/5 10/17/5 27/10/5
f 1/4/2 5/3/2 6/18/8 3/19/8
f 3/19/8 6/18/8 4/12/6 2/13/6
f 10/17/9 8/20/9 9/21/10 12/22/10
f 12/22/10 9/21/10 7/14/7 11/11/7
f 22/6/3 20/5/3 21/23/11 24/24/11
f 24/24/11 21/23/11 19/25/12 23/26/12
f 16/27/13 14/28/13 15/29/14 18/30/14
f 18/30/14 15/29/14 13/8/4 17/7/4
f 5/3/5 25/9/5 4/12/5 6/18/5
f 27/10/5 10/17/5 12/22/5 11/11/5
f 34/2/5 35/31/5 25/9/5 5/3/5
f 35/31/5 43/15/5 27/10/5 25/9/5
f 28/32/5 23/26/5 41/33/5 43/15/5
f 18/30/5 17/7/5 26/34/5 16/27/5
f 17/7/5 22/6/5 28/32/5 26/34/5
f 22/6/5 24/24/5 23/26/5 28/32/5
f 14/35/15 29/36/15 13/37/15 15/38/15
f 29/36/15 31/39/15 20/40/15 13/37/15
f 31/39/15 19/41/15 21/42/15 20/40/15
f 33/43/15 36/44/15 29/36/15 14/35/15
f 36/44/15 39/45/15 31/39/15 29/36/15
f 8/20/9 10/17/9 42/16/16 37/46/16
f 3/47/15 2/48/15 30/49/15 1/50/15
f 2/48/15 7/51/15 32/52/15 30/49/15
f 7/51/15 9/53/15 8/54/15 32/52/15
f 38/55/16 41/33/16 23/26/12 19/25/12
f 30/49/15 32/52/15 39/45/15 36/44/15
f 1/50/15 30/49/15 36/44/15 33/43/15
f 26/34/5 28/32/5 43/15/5 35/31/5
f 16/27/5 26/34/5 35/31/5 34/2/5
f 32/52/15 8/54/15 37/56/15 39/45/15
f 14/28/13 16/27/13 34/2/1 33/1/1
f 37/56/15 40/57/15 39/45/15
f 40/57/15 38/58/15 39/45/15
f 41/33/5 44/59/5 43/15/5
f 44/59/5 42/16/5 43/15/5
f 37/46/17 42/16/18 50/60/19 45/61/20
f 72/62/21 70/63/21 52/64/21 53/65/21
f 39/45/15 38/58/15 19/41/15 31/39/15
f 48/66/22 47/67/23 46/68/24 49/69/25
f 49/69/25 46/68/24 45/61/20 50/60/19
f 40/57/26 37/56/27 45/70/27 46/71/28
f 41/33/29 38/55/30 47/67/23 48/66/22
f 71/72/31 69/73/32 56/74/33 54/75/34
f 38/58/35 40/57/26 46/71/28 47/76/35
f 53/77/36 52/78/36 54/75/36 56/74/36
f 52/78/37 51/79/37 55/80/37 54/75/37
f 73/81/38 71/72/31 54/75/34 55/80/39
f 51/82/40 74/83/40 82/84/40 79/85/40
f 70/63/21 74/83/21 51/82/21 52/64/21
f 53/77/41 56/74/41 76/86/41 77/87/41
f 67/88/42 64/89/43 60/90/44 57/91/45
f 68/92/46 66/93/47 62/94/48 59/95/49
f 66/96/50 65/97/51 61/98/52 62/99/53
f 65/97/51 63/100/54 58/101/55 61/98/52
f 63/100/54 67/88/42 57/91/45 58/101/55
f 64/102/56 68/92/46 59/95/49 60/103/57
f 42/104/58 44/105/58 68/92/46 64/102/56
f 49/106/25 50/107/19 67/88/42 63/100/54
f 48/108/22 49/106/25 63/100/54 65/97/51
f 41/109/29 48/108/22 65/97/51 66/96/50
f 44/105/58 41/110/58 66/93/47 68/92/46
f 50/107/19 42/111/18 64/89/43 67/88/42
f 57/91/45 60/90/44 72/112/59 69/73/60
f 59/95/49 62/94/48 74/83/61 70/63/61
f 62/99/53 61/98/52 73/81/62 74/113/63
f 61/98/52 58/101/55 71/72/64 73/81/62
f 58/101/55 57/91/45 69/73/60 71/72/64
f 60/103/57 59/95/49 70/63/61 72/62/61
f 82/114/65 81/115/65 78/116/65 79/117/65
f 75/118/66 80/119/66 77/87/66 76/86/66
f 55/80/67 51/79/67 79/117/67 78/116/67
f 72/62/68 53/65/68 77/120/68 80/121/68
f 56/74/33 69/73/32 75/118/69 76/86/69
f 74/113/70 73/81/70 81/115/70 82/114/70
f 69/73/71 72/112/71 80/119/71 75/118/71
f 73/81/38 55/80/39 78/116/72 81/115/72
